<svg width="71" height="107" viewBox="0 0 71 107" fill="none" xmlns="http://www.w3.org/2000/svg">
<circle cx="34.2872" cy="13.5967" r="13.5967" fill="#979797"/>
<path d="M4.30366 57.3363L2.27468 55.4905C1.02761 54.356 0.95996 52.417 2.12493 51.1983L17.8244 34.7756C19.35 33.1797 21.3609 32.1335 23.5435 31.8003L32.8467 30.3799C33.8471 30.2271 34.8649 30.2271 35.8654 30.3799L45.3821 31.8329C47.433 32.146 49.3357 33.0892 50.8266 34.5319L68.148 51.2923C69.3558 52.461 69.368 54.3938 68.1751 55.5776L66.4626 57.2771C65.2929 58.438 63.4059 58.438 62.2362 57.2771L46.9671 42.1238C46.3361 41.4975 45.2627 41.9445 45.2627 42.8336V65.1585C45.2627 66.3442 45.4736 67.5204 45.8855 68.6323L57.8351 100.889C58.418 102.462 57.5972 104.208 56.0137 104.763L52.4047 106.027C50.8614 106.567 49.1696 105.772 48.6005 104.239L37.2731 73.7266C36.2928 71.0859 32.5424 71.13 31.6244 73.793L21.1429 104.199C20.6077 105.752 18.9236 106.586 17.3645 106.07L13.2735 104.716C11.6757 104.188 10.8252 102.449 11.3891 100.863L22.8713 68.5767C23.2538 67.501 23.4494 66.3677 23.4494 65.226V43.0546C23.4494 42.136 22.3149 41.7034 21.7033 42.3887L8.56068 57.1147C7.45002 58.3592 5.5375 58.4587 4.30366 57.3363Z" fill="#979797"/>
</svg>
