<svg width="88" height="86" viewBox="0 0 88 86" fill="none" xmlns="http://www.w3.org/2000/svg">
<path d="M69.9321 86H17.3877C14.6263 86 12.3877 83.7614 12.3877 81V41.3976C12.3877 38.6361 10.1491 36.3976 7.38772 36.3976H5.38614C0.450253 36.3976 -1.50034 30.005 2.59469 27.2493L40.3427 1.84769C42.0074 0.727498 44.1804 0.71092 45.862 1.80559L57.0663 9.09942V4.9252C57.0663 2.2051 59.2714 2.46706e-05 61.9915 1.58931e-05C64.7116 7.11559e-06 66.9167 2.20509 66.9167 4.9252V15.8421L85.0221 27.2982C89.1505 29.9857 87.2474 36.3976 82.3213 36.3976H79.9321C77.1707 36.3976 74.9321 38.6361 74.9321 41.3976V81C74.9321 83.7614 72.6935 86 69.9321 86Z" fill="#979797"/>
</svg>
