<svg width="77" height="109" viewBox="0 0 77 109" fill="none" xmlns="http://www.w3.org/2000/svg">
<path fill-rule="evenodd" clip-rule="evenodd" d="M72.01 46.435C72.6332 46.5259 73.0647 47.1048 72.9739 47.7281L64.991 102.467C64.9002 103.091 64.3212 103.522 63.698 103.431C63.0748 103.34 62.6432 102.762 62.7341 102.138L70.7169 47.3989C70.8078 46.7757 71.3867 46.3442 72.01 46.435Z" fill="#747474"/>
<path d="M63.8637 15.7904C63.8637 24.0657 57.2665 30.7741 49.1285 30.7741C40.9904 30.7741 34.3933 24.0657 34.3933 15.7904C34.3933 7.51509 40.9904 0.806641 49.1285 0.806641C57.2665 0.806641 63.8637 7.51509 63.8637 15.7904Z" fill="#979797"/>
<path d="M14.255 34.9305L36.3067 29.3568C36.491 29.3102 36.6841 29.3104 36.8684 29.3572L50.4792 32.8173C50.9849 32.9458 51.4575 33.1819 51.866 33.5093C51.945 33.5727 52.0115 33.6499 52.0676 33.7342L59.301 44.5989C60.4414 46.3051 61.5818 48.58 64.4328 49.1487L72.4156 50.5538C76.9772 51.1226 76.9772 52.7254 76.9772 53.8628C76.9772 55.0003 77.5474 59.2825 72.9858 58.7137L61.5818 57.6797C58.8123 57.6797 57.816 56.584 56.4746 55.3765C56.3956 55.3054 56.3264 55.224 56.2696 55.1343L51.3768 47.4001C51.3378 47.3384 51.3053 47.2726 51.2762 47.2057C50.5668 45.5746 48.4736 44.9573 47.5492 47.3074L43.1779 58.42C42.5518 60.0116 43.0681 61.8324 44.4315 62.8406L59.6473 74.0933C61.1908 75.2348 61.6214 77.3859 60.6395 79.0501L47.8986 100.643C46.7747 102.548 44.277 103.045 42.5295 101.712L40.9997 100.546C39.5269 99.4226 39.0957 97.3662 39.9897 95.7298L46.0418 84.6524C46.9517 82.987 46.4873 80.8924 44.9627 79.785L24.2652 64.7517C22.8564 63.7285 22.3384 61.8459 23.0204 60.2279L30.2207 42.8927C31.1861 40.602 29.6505 40.049 27.3697 40.6178L21.1772 41.7408C21.1241 41.7504 21.0715 41.7637 21.0205 41.7814C19.3527 42.3592 18.2464 43.5171 18.2464 45.7364V48.58C18.2464 50.6488 16.2895 52.5611 14.255 52.5611C12.2205 52.5611 10.8338 51.2176 10.8338 49.1487L10.8009 41.1865C10.8009 38.9069 11.7445 35.4992 14.255 34.9305Z" fill="#979797"/>
<path d="M18.3918 84.2267L20.8502 70.4812C21.3244 67.8302 24.3134 66.54 26.5181 68.0348L30.8513 70.9725C32.0932 71.8145 32.7127 73.3355 32.42 74.8239L29.491 89.716C29.3163 90.6043 28.8309 91.3981 28.1248 91.9504L7.49309 108.089C6.18217 109.114 4.35987 109.125 3.03675 108.116L1.47356 106.924C-0.376652 105.513 -0.505457 102.738 1.20585 101.156L17.2454 86.3282C17.8442 85.7747 18.247 85.0362 18.3918 84.2267Z" fill="#979797"/>
<path d="M24.1415 54.3737L27.5324 46.8305C28.7313 44.1634 26.0204 41.4157 23.197 42.4363C22.091 42.8361 21.2776 43.7581 21.046 44.8747L20.8364 45.8849L19.4543 52.9902C19.2414 54.0847 19.8451 55.175 20.9069 55.6137C22.1554 56.1294 23.6015 55.5751 24.1415 54.3737Z" fill="#747474"/>
<path d="M27.5379 31.1203L33.6411 29.6408C34.033 29.5458 34.3969 29.3571 34.7028 29.0902C36.2303 27.7571 35.695 25.2303 33.7636 24.6568L28.0092 22.948C26.0988 22.3807 24.1152 23.5753 23.6835 25.5531L23.3788 26.9493C22.8272 29.4766 25.0641 31.72 27.5379 31.1203Z" fill="#747474"/>
</svg>
