<svg width="71" height="107" viewBox="0 0 71 107" fill="none" xmlns="http://www.w3.org/2000/svg">
<circle cx="34.2874" cy="13.5967" r="13.5967" fill="#979797"/>
<path d="M4.30366 57.336L2.27468 55.4902C1.02761 54.3557 0.95996 52.4167 2.12493 51.1981L17.8244 34.7754C19.35 33.1794 21.3609 32.1333 23.5435 31.8L32.8467 30.3796C33.8471 30.2269 34.8649 30.2269 35.8654 30.3796L45.3821 31.8326C47.433 32.1458 49.3357 33.089 50.8266 34.5316L68.148 51.2921C69.3558 52.4608 69.368 54.3935 68.1751 55.5774L66.4626 57.2769C65.2929 58.4377 63.4059 58.4377 62.2362 57.2769L46.9671 42.1235C46.3361 41.4973 45.2627 41.9443 45.2627 42.8333V65.1582C45.2627 66.3439 45.4736 67.5202 45.8855 68.6321L57.8351 100.889C58.418 102.462 57.5972 104.208 56.0137 104.762L52.4047 106.027C50.8614 106.567 49.1696 105.772 48.6005 104.239L37.2731 73.7264C36.2928 71.0856 32.5424 71.1297 31.6244 73.7927L21.1429 104.199C20.6077 105.752 18.9236 106.585 17.3645 106.069L13.2735 104.716C11.6757 104.188 10.8252 102.448 11.3891 100.863L22.8713 68.5765C23.2538 67.5008 23.4494 66.3675 23.4494 65.2257V43.0543C23.4494 42.1358 22.3149 41.7032 21.7033 42.3885L8.56068 57.1145C7.45002 58.359 5.5375 58.4585 4.30366 57.336Z" fill="#979797"/>
</svg>
