<svg width="71" height="107" viewBox="0 0 71 107" fill="none" xmlns="http://www.w3.org/2000/svg">
<circle cx="34.2872" cy="13.5967" r="13.5967" fill="#979797"/>
<path d="M4.30366 57.3363L2.27468 55.4905C1.02761 54.356 0.95996 52.417 2.12493 51.1983L17.8244 34.7756C19.35 33.1797 21.3609 32.1335 23.5435 31.8003L32.8467 30.3799C33.8471 30.2271 34.8649 30.2271 35.8654 30.3799L45.3821 31.8329C47.433 32.146 49.3357 33.0892 50.8266 34.5319L68.148 51.2923C69.3558 52.461 69.368 54.3938 68.1751 55.5776L66.4626 57.2771C65.2929 58.438 63.4059 58.438 62.2362 57.2771L46.9671 42.1238C46.3361 41.4975 45.2627 41.9445 45.2627 42.8336V65.1585C45.2627 66.3442 45.4736 67.5204 45.8855 68.6323L57.8351 100.889C58.418 102.462 57.5972 104.208 56.0137 104.763L52.4047 106.027C50.8614 106.567 49.1696 105.772 48.6005 104.239L37.2731 73.7266C36.2928 71.0859 32.5424 71.13 31.6244 73.793L21.1429 104.199C20.6077 105.752 18.9236 106.586 17.3645 106.07L13.2735 104.716C11.6757 104.188 10.8252 102.449 11.3891 100.863L22.8713 68.5767C23.2538 67.501 23.4494 66.3677 23.4494 65.226V43.0546C23.4494 42.136 22.3149 41.7034 21.7033 42.3887L8.56068 57.1147C7.45002 58.3592 5.5375 58.4587 4.30366 57.3363Z" fill="#979797"/>
<path d="M3.50002 56.4999C4.95094 57.6648 6.50005 58.9999 8.4999 56.9999L20.5 43.4999C21.7673 41.9737 23.5 41.4999 23.5 43.4999C23.5 44.673 25.0854 45.789 26.2543 45.789H41.9883C43.1237 45.789 45 45.6396 45 44.5001C45 41.5001 46.2004 40.9833 47.5114 42.2259L62 56.9999C64 58.9999 66.481 57.8634 67.5 56.4999C68.3582 55.3516 70 53.4999 68 51.4999L49.5 33.5001C49.0139 33.0255 46.6672 32.1219 46 32.0001C46 32.0001 35.8871 30.5708 35.5 30.5001C35.1129 30.4295 33.3881 30.4352 33 30.5001L22.5 32.0001C21.7656 32.123 18.5112 33.9569 18 34.5001L2.00004 51.4999C0.500009 53.4999 1.94216 55.2492 3.50002 56.4999Z" fill="#48CC6D"/>
</svg>
